<svg width="188" height="261" viewBox="0 0 188 261" fill="none" xmlns="http://www.w3.org/2000/svg">
<path d="M100.308 85.2501V220.75V85.2501ZM100.308 85.2501V38.5307C100.308 35.6072 100.308 34.1453 100.78 32.9016C101.197 31.8032 101.873 30.8309 102.748 30.0738C103.739 29.2164 105.077 28.7541 107.755 27.8295L167.663 7.14975C172.503 5.47891 174.924 4.64335 176.851 5.14432C178.536 5.58283 179.997 6.67289 180.933 8.19089C182 9.92518 182 12.5671 182 17.8507V64.5703C182 67.4938 182 68.9555 181.528 70.1994C181.111 71.2978 180.434 72.27 179.56 73.0271C178.569 73.8846 177.231 74.3467 174.552 75.2713L114.645 95.9512C109.804 97.6221 107.384 98.4575 105.457 97.9566C103.771 97.5181 102.311 96.4281 101.375 94.9101C100.308 93.1758 100.308 90.5339 100.308 85.2501ZM100.308 220.75C100.308 240.218 78.9724 256 52.6538 256C26.3353 256 5 240.218 5 220.75C5 201.281 26.3353 185.5 52.6538 185.5C78.9724 185.5 100.308 201.281 100.308 220.75Z" fill="black"/>
<path d="M100.308 85.2501V220.75M100.308 85.2501V38.5307C100.308 35.6072 100.308 34.1453 100.78 32.9016C101.197 31.8032 101.873 30.8309 102.748 30.0738C103.739 29.2164 105.077 28.7541 107.755 27.8295L167.663 7.14975C172.503 5.47891 174.924 4.64335 176.851 5.14432C178.536 5.58283 179.997 6.67289 180.933 8.19089C182 9.92518 182 12.5671 182 17.8507V64.5703C182 67.4938 182 68.9555 181.528 70.1994C181.111 71.2978 180.434 72.27 179.56 73.0271C178.569 73.8846 177.231 74.3467 174.552 75.2713L114.645 95.9512C109.804 97.6221 107.384 98.4575 105.457 97.9566C103.771 97.5181 102.311 96.4281 101.375 94.9101C100.308 93.1758 100.308 90.5339 100.308 85.2501ZM100.308 220.75C100.308 240.218 78.9724 256 52.6538 256C26.3353 256 5 240.218 5 220.75C5 201.281 26.3353 185.5 52.6538 185.5C78.9724 185.5 100.308 201.281 100.308 220.75Z" stroke="black" stroke-width="10" stroke-linecap="round" stroke-linejoin="round"/>
</svg>
