<svg width="27" height="25" viewBox="0 0 27 25" fill="none" xmlns="http://www.w3.org/2000/svg">
<path d="M19.0561 8.25071C19.9279 9.43437 20.4444 10.9057 20.4444 12.5C20.4444 14.0944 19.9279 15.5656 19.0561 16.7493M21.8333 2.99812C24.3906 5.33235 26 8.72451 26 12.5C26 16.2755 24.3906 19.6676 21.8333 22.0019M3.22222 8.25071H4.47389C5.23907 8.25071 5.62165 8.25071 5.97618 8.15343C6.29032 8.06724 6.58715 7.92546 6.85318 7.73452C7.15343 7.51904 7.39835 7.21929 7.88821 6.61982L11.5353 2.15649C12.1404 1.41595 12.4429 1.04568 12.7072 1.00714C12.9361 0.973767 13.1662 1.05875 13.3211 1.23381C13.5 1.43596 13.5 1.91795 13.5 2.88192V22.118C13.5 23.0821 13.5 23.5641 13.3211 23.7662C13.1662 23.9413 12.9361 24.0263 12.7072 23.9928C12.4431 23.9543 12.1404 23.5841 11.5353 22.8435L7.88821 18.3802C7.39835 17.7808 7.15343 17.4809 6.85318 17.2655C6.58715 17.0745 6.29032 16.9328 5.97618 16.8466C5.62165 16.7493 5.23907 16.7493 4.47389 16.7493H3.22222C2.44437 16.7493 2.05544 16.7493 1.75835 16.5949C1.49701 16.4591 1.28454 16.2424 1.15137 15.976C1 15.673 1 15.2762 1 14.483V10.517C1 9.72368 1 9.32709 1.15137 9.02409C1.28454 8.75757 1.49701 8.54089 1.75835 8.40509C2.05544 8.25071 2.44437 8.25071 3.22222 8.25071Z" stroke="black" stroke-width="2" stroke-linecap="round" stroke-linejoin="round"/>
</svg>
