<svg width="52" height="56" viewBox="0 0 52 56" fill="none" xmlns="http://www.w3.org/2000/svg">
<path d="M51.1981 0.61C50.9694 0.443125 50.6844 0.34375 50.375 0.34375C50.2156 0.34375 50.0637 0.37 49.9212 0.41875L49.9306 0.415L16.1787 11.665C15.6162 11.8581 15.2169 12.3831 15.2169 13V40.2888C13.6325 38.8038 11.4969 37.8906 9.1475 37.8906C4.2425 37.8906 0.265625 41.8675 0.265625 46.7725C0.265625 51.6775 4.2425 55.6544 9.1475 55.6544C14.0525 55.6544 18.0294 51.6775 18.0294 46.7725C18.0294 46.7631 18.0294 46.7556 18.0294 46.7462V46.7481V27.1375L48.9669 16.825V34.6638C47.3825 33.1788 45.2469 32.2656 42.8975 32.2656C37.9925 32.2656 34.0156 36.2425 34.0156 41.1475C34.0156 46.0525 37.9925 50.0294 42.8975 50.0294C47.8025 50.0294 51.7794 46.0525 51.7794 41.1475C51.7794 41.1381 51.7794 41.1306 51.7794 41.1212V41.1231V1.74812C51.7794 1.28125 51.5525 0.865 51.2019 0.61L51.1981 0.60625V0.61ZM9.125 52.8438C5.75937 52.8438 3.03125 50.1156 3.03125 46.75C3.03125 43.3844 5.75937 40.6562 9.125 40.6562C12.4906 40.6562 15.2187 43.3844 15.2187 46.75C15.215 50.1138 12.4887 52.84 9.125 52.8438ZM18.0313 14.0144L48.9688 3.70187V13.8606L18.0313 24.1731V14.0144ZM42.875 47.2188C39.5094 47.2188 36.7813 44.4906 36.7813 41.125C36.7813 37.7594 39.5094 35.0312 42.875 35.0312C46.2406 35.0312 48.9688 37.7594 48.9688 41.125C48.9669 44.4888 46.2388 47.2169 42.875 47.2188Z" fill="black"/>
</svg>
